<svg xmlns="http://www.w3.org/2000/svg" viewBox="0 0 560 430" width="560" height="430" font-family="ui-sans-serif, 'IBM Plex Sans', system-ui, sans-serif" role="img" aria-label="A KyzoScript query lowers to relational algebra, fans out into relational, graph, HNSW, FTS/LSH, and as-of access paths, all funnelling through one memcomparable key encoding into a pure-Rust ordered LSM store.">
  <defs>
    <marker id="p" viewBox="0 0 10 10" refX="8" refY="5" markerWidth="7" markerHeight="7" orient="auto-start-reverse"><path d="M0,0 L10,5 L0,10 z" fill="#35443b"/></marker>
    <marker id="pg" viewBox="0 0 10 10" refX="8" refY="5" markerWidth="8" markerHeight="8" orient="auto-start-reverse"><path d="M0,0 L10,5 L0,10 z" fill="#2F7E52"/></marker>
  </defs>

  <rect x="1" y="1" width="558" height="428" rx="3" fill="#0c1310" stroke="#263229"/>

  <!-- query -->
  <rect x="200" y="20" width="160" height="44" rx="3" fill="#1E4D33" stroke="#2F7E52"/>
  <text x="280" y="47" font-size="13" font-weight="600" fill="#eef3ef" text-anchor="middle">KyzoScript query</text>
  <line x1="280" y1="64" x2="280" y2="86" stroke="#35443b" stroke-width="1.8" marker-end="url(#p)"/>

  <!-- relational algebra -->
  <rect x="120" y="88" width="320" height="50" rx="3" fill="#18221c" stroke="#35443b"/>
  <text x="280" y="108" font-size="12.5" font-weight="600" fill="#eef3ef" text-anchor="middle">relational algebra</text>
  <text x="280" y="125" font-size="10.5" fill="#7c8f83" text-anchor="middle">stratified · semi-naive · magic sets</text>

  <!-- fan-out -->
  <g stroke="#35443b" stroke-width="1.5" fill="none">
    <path d="M280,138 C160,150 96,158 86,178"  marker-end="url(#p)"/>
    <path d="M280,138 C220,152 190,160 186,178" marker-end="url(#p)"/>
    <line x1="280" y1="138" x2="286" y2="178"   marker-end="url(#p)"/>
    <path d="M280,138 C340,152 370,160 386,178" marker-end="url(#p)"/>
    <path d="M280,138 C400,150 464,158 486,178" marker-end="url(#p)"/>
  </g>

  <!-- five access paths -->
  <g>
    <rect x="40"  y="180" width="92" height="54" rx="3" fill="#18221c" stroke="#35443b"/>
    <text x="86"  y="203" font-size="11" fill="#a9baaf" text-anchor="middle">relational</text>
    <text x="86"  y="219" font-size="11" fill="#a9baaf" text-anchor="middle">scan</text>

    <rect x="140" y="180" width="92" height="54" rx="3" fill="#18221c" stroke="#35443b"/>
    <text x="186" y="203" font-size="11" fill="#a9baaf" text-anchor="middle">graph</text>
    <text x="186" y="219" font-size="11" fill="#a9baaf" text-anchor="middle">step</text>

    <rect x="240" y="180" width="92" height="54" rx="3" fill="#18221c" stroke="#35443b"/>
    <text x="286" y="203" font-size="11" fill="#a9baaf" text-anchor="middle">HNSW</text>
    <text x="286" y="219" font-size="11" fill="#a9baaf" text-anchor="middle">probe</text>

    <rect x="340" y="180" width="92" height="54" rx="3" fill="#18221c" stroke="#35443b"/>
    <text x="386" y="203" font-size="11" fill="#a9baaf" text-anchor="middle">FTS / LSH</text>
    <text x="386" y="219" font-size="11" fill="#a9baaf" text-anchor="middle">lookup</text>

    <rect x="440" y="180" width="92" height="54" rx="3" fill="#18221c" stroke="#35443b"/>
    <text x="486" y="203" font-size="11" fill="#a9baaf" text-anchor="middle">as-of</text>
    <text x="486" y="219" font-size="11" fill="#a9baaf" text-anchor="middle">read</text>
  </g>

  <!-- converge -->
  <g stroke="#35443b" stroke-width="1.5" fill="none">
    <path d="M86,234  C96,270 180,278 220,290"  marker-end="url(#p)"/>
    <path d="M186,234 C196,262 240,272 258,290"  marker-end="url(#p)"/>
    <line x1="286" y1="234" x2="286" y2="290"     marker-end="url(#p)"/>
    <path d="M386,234 C376,262 332,272 314,290"  marker-end="url(#p)"/>
    <path d="M486,234 C476,270 392,278 352,290"  marker-end="url(#p)"/>
  </g>

  <!-- memcmp law -->
  <rect x="70" y="292" width="420" height="52" rx="3" fill="#18221c" stroke="#2F7E52" stroke-width="1.5"/>
  <text x="280" y="313" font-size="12.5" font-weight="700" fill="#eef3ef" text-anchor="middle">memcomparable key encoding</text>
  <text x="280" y="331" font-size="11" fill="#6FAE8B" text-anchor="middle">byte order = semantic order</text>

  <line x1="280" y1="344" x2="280" y2="366" stroke="#2F7E52" stroke-width="2.5" marker-end="url(#pg)"/>

  <!-- fjall -->
  <rect x="140" y="368" width="280" height="50" rx="3" fill="#1E4D33" stroke="#2F7E52" stroke-width="1.5"/>
  <text x="280" y="389" font-size="12.5" font-weight="600" fill="#eef3ef" text-anchor="middle">fjall</text>
  <text x="280" y="406" font-size="10.5" fill="#9cc3af" text-anchor="middle">ordered · transactional · pure-Rust LSM</text>
</svg>
