<svg xmlns="http://www.w3.org/2000/svg" viewBox="0 0 560 430" width="560" height="430" font-family="ui-sans-serif, -apple-system, 'Segoe UI', Roboto, sans-serif" role="img" aria-label="A KyzoScript query lowers to relational algebra, fans out into relational, graph, HNSW, FTS/LSH, and as-of access paths, all funnelling through one memcomparable key encoding into a pure-Rust ordered LSM store.">
  <defs>
    <marker id="p" viewBox="0 0 10 10" refX="8" refY="5" markerWidth="7" markerHeight="7" orient="auto-start-reverse">
      <path d="M0,0 L10,5 L0,10 z" fill="#7FA08C"/>
    </marker>
    <marker id="pg" viewBox="0 0 10 10" refX="8" refY="5" markerWidth="8" markerHeight="8" orient="auto-start-reverse">
      <path d="M0,0 L10,5 L0,10 z" fill="#2F7E52"/>
    </marker>
  </defs>

  <rect x="1" y="1" width="558" height="428" rx="16" fill="#FBFAF6" stroke="#E4E7E2"/>

  <!-- query -->
  <rect x="200" y="20" width="160" height="44" rx="12" fill="#2F7E52"/>
  <text x="280" y="47" text-anchor="middle" font-size="13" font-weight="600" fill="#FFFFFF">KyzoScript query</text>
  <line x1="280" y1="64" x2="280" y2="86" stroke="#7FA08C" stroke-width="1.8" marker-end="url(#p)"/>

  <!-- relational algebra -->
  <rect x="120" y="88" width="320" height="50" rx="12" fill="#E8F0EB" stroke="#7FA08C"/>
  <text x="280" y="108" text-anchor="middle" font-size="12.5" font-weight="600" fill="#17271F">relational algebra</text>
  <text x="280" y="125" text-anchor="middle" font-size="10.5" fill="#5A6B62">stratified · semi-naive · magic sets</text>

  <!-- fan-out arrows -->
  <g stroke="#7FA08C" stroke-width="1.5" fill="none">
    <path d="M280,138 C160,150 96,158 86,178"  marker-end="url(#p)"/>
    <path d="M280,138 C220,152 190,160 186,178" marker-end="url(#p)"/>
    <line x1="280" y1="138" x2="286" y2="178"   marker-end="url(#p)"/>
    <path d="M280,138 C340,152 370,160 386,178" marker-end="url(#p)"/>
    <path d="M280,138 C400,150 464,158 486,178" marker-end="url(#p)"/>
  </g>

  <!-- five access paths -->
  <g>
    <rect x="40"  y="180" width="92" height="54" rx="11" fill="#E8F0EB" stroke="#7FA08C"/>
    <text x="86"  y="203" text-anchor="middle" font-size="11" fill="#17271F">relational</text>
    <text x="86"  y="219" text-anchor="middle" font-size="11" fill="#17271F">scan</text>

    <rect x="140" y="180" width="92" height="54" rx="11" fill="#E8F0EB" stroke="#7FA08C"/>
    <text x="186" y="203" text-anchor="middle" font-size="11" fill="#17271F">graph</text>
    <text x="186" y="219" text-anchor="middle" font-size="11" fill="#17271F">step</text>

    <rect x="240" y="180" width="92" height="54" rx="11" fill="#E8F0EB" stroke="#7FA08C"/>
    <text x="286" y="203" text-anchor="middle" font-size="11" fill="#17271F">HNSW</text>
    <text x="286" y="219" text-anchor="middle" font-size="11" fill="#17271F">probe</text>

    <rect x="340" y="180" width="92" height="54" rx="11" fill="#E8F0EB" stroke="#7FA08C"/>
    <text x="386" y="203" text-anchor="middle" font-size="11" fill="#17271F">FTS / LSH</text>
    <text x="386" y="219" text-anchor="middle" font-size="11" fill="#17271F">lookup</text>

    <rect x="440" y="180" width="92" height="54" rx="11" fill="#E8F0EB" stroke="#7FA08C"/>
    <text x="486" y="203" text-anchor="middle" font-size="11" fill="#17271F">as-of</text>
    <text x="486" y="219" text-anchor="middle" font-size="11" fill="#17271F">read</text>
  </g>

  <!-- converge to memcmp -->
  <g stroke="#7FA08C" stroke-width="1.5" fill="none">
    <path d="M86,234  C96,270 180,278 220,290"  marker-end="url(#p)"/>
    <path d="M186,234 C196,262 240,272 258,290"  marker-end="url(#p)"/>
    <line x1="286" y1="234" x2="286" y2="290"     marker-end="url(#p)"/>
    <path d="M386,234 C376,262 332,272 314,290"  marker-end="url(#p)"/>
    <path d="M486,234 C476,270 392,278 352,290"  marker-end="url(#p)"/>
  </g>

  <!-- memcmp law -->
  <rect x="70" y="292" width="420" height="52" rx="12" fill="#E8F0EB" stroke="#2F7E52" stroke-width="2"/>
  <text x="280" y="313" text-anchor="middle" font-size="12.5" font-weight="700" fill="#1E4D33">memcomparable key encoding</text>
  <text x="280" y="331" text-anchor="middle" font-size="11" fill="#2F7E52">byte order = semantic order</text>

  <line x1="280" y1="344" x2="280" y2="366" stroke="#2F7E52" stroke-width="2.5" marker-end="url(#pg)"/>

  <!-- fjall -->
  <rect x="140" y="368" width="280" height="50" rx="12" fill="#1E4D33" stroke="#2F7E52" stroke-width="1.5"/>
  <text x="280" y="389" text-anchor="middle" font-size="12.5" font-weight="600" fill="#FFFFFF">fjall</text>
  <text x="280" y="406" text-anchor="middle" font-size="10.5" fill="#9CC3AF">ordered · transactional · pure-Rust LSM</text>
</svg>
