<svg xmlns="http://www.w3.org/2000/svg" viewBox="0 0 860 476" width="860" height="476" role="img" aria-label="KyzoDB benchmark panel: seven access patterns, each with the metric, a KyzoDB column, and a named reference competitor (stitched stack, faiss/hnswlib, Tantivy, Souffle, Kuzu, SQLite), every cell reading TBD until measured.">
  <defs>
    <style>
      .sans { font-family: ui-sans-serif, 'IBM Plex Sans', system-ui, sans-serif; }
      .mono { font-family: ui-monospace, 'JetBrains Mono', Menlo, Consolas, monospace; }
    </style>
  </defs>

  <!-- instrument panel: dark ground, hairline edge, near-square, hard offset shadow -->
  <rect x="6" y="6" width="846" height="468" rx="3" fill="#0e140f"/>
  <rect x="2" y="2" width="846" height="468" rx="3" fill="#0c1310" stroke="#263229"/>
  <!-- fern joint: the single structural accent -->
  <rect x="2" y="2" width="3" height="468" fill="#2F7E52"/>

  <text x="28" y="46" class="sans" font-size="21" font-weight="600" fill="#eef3ef">Benchmarks</text>
  <text x="28" y="68" class="sans" font-size="13" fill="#7c8f83">One engine, measured against the best in each category. Measured, never asserted.</text>

  <!-- column headers -->
  <text x="28"  y="108" class="mono" font-size="10.5" letter-spacing="0.8" fill="#5d6f64">ACCESS PATTERN</text>
  <text x="300" y="108" class="mono" font-size="10.5" letter-spacing="0.8" fill="#5d6f64">METRIC</text>
  <text x="565" y="108" class="mono" font-size="10.5" letter-spacing="0.8" fill="#6FAE8B" text-anchor="middle">KYZODB</text>
  <text x="640" y="108" class="mono" font-size="10.5" letter-spacing="0.8" fill="#5d6f64">REFERENCE</text>
  <line x1="28" y1="118" x2="832" y2="118" stroke="#263229"/>

  <g>
    <!-- row 1: the query only we run -->
    <text x="28"  y="148" class="sans" font-size="13.5" fill="#a9baaf">Cross-modal query, one snapshot</text>
    <text x="300" y="148" class="mono" font-size="11.5" fill="#7c8f83">p95 latency</text>
    <rect x="520" y="133" width="90" height="21" rx="2" fill="none" stroke="#35443b"/>
    <text x="565" y="148" class="mono" font-size="11" fill="#5b7590" text-anchor="middle">TBD</text>
    <text x="640" y="148" class="mono" font-size="11" fill="#7c8f83">stitched stack</text>
    <rect x="742" y="133" width="90" height="21" rx="2" fill="none" stroke="#35443b"/>
    <text x="787" y="148" class="mono" font-size="11" fill="#5b7590" text-anchor="middle">TBD</text>
    <line x1="28" y1="164" x2="832" y2="164" stroke="#1b2620"/>

    <!-- row 2 -->
    <text x="28"  y="196" class="sans" font-size="13.5" fill="#a9baaf">Approximate vector search</text>
    <text x="300" y="196" class="mono" font-size="11.5" fill="#7c8f83">Recall@10 · QPS</text>
    <rect x="520" y="181" width="90" height="21" rx="2" fill="none" stroke="#35443b"/>
    <text x="565" y="196" class="mono" font-size="11" fill="#5b7590" text-anchor="middle">TBD</text>
    <text x="640" y="196" class="mono" font-size="11" fill="#7c8f83">faiss · hnswlib</text>
    <rect x="742" y="181" width="90" height="21" rx="2" fill="none" stroke="#35443b"/>
    <text x="787" y="196" class="mono" font-size="11" fill="#5b7590" text-anchor="middle">TBD</text>
    <line x1="28" y1="212" x2="832" y2="212" stroke="#1b2620"/>

    <!-- row 3 -->
    <text x="28"  y="244" class="sans" font-size="13.5" fill="#a9baaf">Full-text &amp; hybrid retrieval</text>
    <text x="300" y="244" class="mono" font-size="11.5" fill="#7c8f83">queries/sec</text>
    <rect x="520" y="229" width="90" height="21" rx="2" fill="none" stroke="#35443b"/>
    <text x="565" y="244" class="mono" font-size="11" fill="#5b7590" text-anchor="middle">TBD</text>
    <text x="640" y="244" class="mono" font-size="11" fill="#7c8f83">Tantivy</text>
    <rect x="742" y="229" width="90" height="21" rx="2" fill="none" stroke="#35443b"/>
    <text x="787" y="244" class="mono" font-size="11" fill="#5b7590" text-anchor="middle">TBD</text>
    <line x1="28" y1="260" x2="832" y2="260" stroke="#1b2620"/>

    <!-- row 4 -->
    <text x="28"  y="292" class="sans" font-size="13.5" fill="#a9baaf">Recursive Datalog</text>
    <text x="300" y="292" class="mono" font-size="11.5" fill="#7c8f83">wall-clock</text>
    <rect x="520" y="277" width="90" height="21" rx="2" fill="none" stroke="#35443b"/>
    <text x="565" y="292" class="mono" font-size="11" fill="#5b7590" text-anchor="middle">TBD</text>
    <text x="640" y="292" class="mono" font-size="11" fill="#7c8f83">Souffle</text>
    <rect x="742" y="277" width="90" height="21" rx="2" fill="none" stroke="#35443b"/>
    <text x="787" y="292" class="mono" font-size="11" fill="#5b7590" text-anchor="middle">TBD</text>
    <line x1="28" y1="308" x2="832" y2="308" stroke="#1b2620"/>

    <!-- row 5 -->
    <text x="28"  y="340" class="sans" font-size="13.5" fill="#a9baaf">Whole-graph algorithms</text>
    <text x="300" y="340" class="mono" font-size="11.5" fill="#7c8f83">PageRank · WCC</text>
    <rect x="520" y="325" width="90" height="21" rx="2" fill="none" stroke="#35443b"/>
    <text x="565" y="340" class="mono" font-size="11" fill="#5b7590" text-anchor="middle">TBD</text>
    <text x="640" y="340" class="mono" font-size="11" fill="#7c8f83">Kùzu</text>
    <rect x="742" y="325" width="90" height="21" rx="2" fill="none" stroke="#35443b"/>
    <text x="787" y="340" class="mono" font-size="11" fill="#5b7590" text-anchor="middle">TBD</text>
    <line x1="28" y1="356" x2="832" y2="356" stroke="#1b2620"/>

    <!-- row 6: the axis only we carry -->
    <text x="28"  y="388" class="sans" font-size="13.5" fill="#a9baaf">Time-travel as-of read</text>
    <text x="300" y="388" class="mono" font-size="11.5" fill="#7c8f83">vs. current read</text>
    <rect x="520" y="373" width="90" height="21" rx="2" fill="none" stroke="#35443b"/>
    <text x="565" y="388" class="mono" font-size="11" fill="#5b7590" text-anchor="middle">TBD</text>
    <text x="640" y="388" class="mono" font-size="11" fill="#5d6f64">no equivalent</text>
    <text x="787" y="388" class="mono" font-size="11" fill="#5d6f64" text-anchor="middle">n/a</text>
    <line x1="28" y1="404" x2="832" y2="404" stroke="#1b2620"/>

    <!-- row 7 -->
    <text x="28"  y="436" class="sans" font-size="13.5" fill="#a9baaf">Embedded transactions</text>
    <text x="300" y="436" class="mono" font-size="11.5" fill="#7c8f83">ops/sec · p99</text>
    <rect x="520" y="421" width="90" height="21" rx="2" fill="none" stroke="#35443b"/>
    <text x="565" y="436" class="mono" font-size="11" fill="#5b7590" text-anchor="middle">TBD</text>
    <text x="640" y="436" class="mono" font-size="11" fill="#7c8f83">SQLite</text>
    <rect x="742" y="421" width="90" height="21" rx="2" fill="none" stroke="#35443b"/>
    <text x="787" y="436" class="mono" font-size="11" fill="#5b7590" text-anchor="middle">TBD</text>
  </g>
</svg>
